<svg width="100" height="82" viewBox="0 0 100 82" fill="none" xmlns="http://www.w3.org/2000/svg">
<path d="M99.2501 39.66V1.27996C99.2501 0.689963 98.5001 0.419963 98.1301 0.889963L56.2101 53.29C56.1359 53.3822 56.0893 53.4935 56.0758 53.6111C56.0622 53.7287 56.0822 53.8478 56.1335 53.9545C56.1847 54.0612 56.2651 54.1512 56.3654 54.2141C56.4657 54.277 56.5817 54.3102 56.7001 54.31H86.9901C87.8101 54.31 88.5801 53.94 89.0901 53.3L98.6601 41.34C99.0401 40.86 99.2501 40.27 99.2501 39.66V39.66ZM1.17008 41.34L32.6601 80.7C33.1701 81.34 33.9401 81.71 34.7601 81.71H65.0501C65.5801 81.71 65.8701 81.1 65.5401 80.69L1.70008 0.889963C1.33008 0.429963 0.580078 0.689963 0.580078 1.27996V39.66C0.580078 40.27 0.790078 40.86 1.17008 41.34Z" fill="white"/>
</svg>
