<svg width="681" height="639" viewBox="0 0 681 639" fill="none" xmlns="http://www.w3.org/2000/svg">
<path d="M446.36 0.179993L461.08 111.36L523.44 62.35L446.36 0.179993Z" fill="white"/>
<path d="M423.62 15.19L83.6199 252.19L439.62 322.19C439.62 322.19 508.62 337.19 514.62 358.19C520.62 379.19 481.62 441.19 436.62 456.19C391.62 471.19 300.62 472.19 256.62 440.19C212.62 408.19 182.62 382.19 176.62 376.19L170.62 370.19L18.6199 433.19L452.62 638.19L680.62 348.19L368.62 182.19L438.62 124.19L423.62 15.19Z" fill="white"/>
<path d="M151.06 345.92L126.29 306.53L0.98999 408.37L151.06 345.92Z" fill="white"/>
</svg>
